<?xml version="1.0" encoding="UTF-8" standalone="no"?>
<!-- Created with Inkscape (http://www.inkscape.org/) -->

<svg
   width="210mm"
   height="297mm"
   viewBox="0 0 210 297"
   version="1.1"
   id="svg5"
   xml:space="preserve"
   inkscape:version="1.2.2 (732a01da63, 2022-12-09)"
   sodipodi:docname="logo.svg"
   xmlns:inkscape="http://www.inkscape.org/namespaces/inkscape"
   xmlns:sodipodi="http://sodipodi.sourceforge.net/DTD/sodipodi-0.dtd"
   xmlns="http://www.w3.org/2000/svg"
   xmlns:svg="http://www.w3.org/2000/svg"><sodipodi:namedview
     id="namedview7"
     pagecolor="#ffffff"
     bordercolor="#000000"
     borderopacity="0.25"
     inkscape:showpageshadow="2"
     inkscape:pageopacity="0.0"
     inkscape:pagecheckerboard="0"
     inkscape:deskcolor="#d1d1d1"
     inkscape:document-units="mm"
     showgrid="false"
     inkscape:zoom="1.1539907"
     inkscape:cx="377.38607"
     inkscape:cy="394.71723"
     inkscape:window-width="1920"
     inkscape:window-height="1001"
     inkscape:window-x="-9"
     inkscape:window-y="-9"
     inkscape:window-maximized="1"
     inkscape:current-layer="layer1" /><defs
     id="defs2" /><g
     inkscape:label="Layer 1"
     inkscape:groupmode="layer"
     id="layer1"><path
       id="path302"
       style="fill:#000000;stroke-width:0.143105"
       d="m 109.34444,26.285922 c -1.17355,-0.0024 -2.3214,0.08703 -2.89233,0.252181 -1.16289,0.336376 -3.19936,1.408617 -3.97908,2.094962 -0.82337,0.724757 -1.83896,2.250496 -2.3363,3.509863 -0.356966,0.903959 -0.387019,1.135341 -0.376199,2.914034 0.01229,2.024545 0.160495,2.771447 1.242299,6.264734 0.98032,3.165566 0.71406,4.920088 -1.059881,6.984587 -0.804179,0.935897 -1.733292,1.494538 -3.062346,1.840714 -1.132167,0.294897 -1.950595,0.279544 -3.284037,-0.06149 -2.535304,-0.64842 -3.382817,-1.299479 -4.378544,-3.365687 -0.772053,-1.602072 -1.051679,-2.779152 -0.935344,-3.93516 0.120906,-1.20142 0.799949,-3.225505 1.528589,-4.556311 0.31618,-0.577474 0.539808,-1.140907 0.497128,-1.25212 -0.30062,-0.783399 -4.499349,0.798845 -6.549471,2.468067 -0.524441,0.427004 -1.402203,1.24824 -1.950269,1.825211 -2.579775,2.715834 -3.545886,5.153701 -3.435449,8.668722 0.05994,1.907907 0.02712,1.780957 1.321366,5.113899 0.855322,2.202632 0.896204,3.650698 0.149345,5.314921 -0.441097,0.982894 -0.99775,1.543339 -2.113566,2.128553 -0.643315,0.337398 -0.913218,0.390698 -1.962154,0.390157 -1.635807,-0.0012 -2.636245,-0.31997 -3.525366,-1.123446 -2.145043,-1.938417 -2.620042,-5.185319 -1.327051,-9.070764 0.165003,-0.495834 0.26031,-1.003753 0.21239,-1.128613 -0.119204,-0.310642 -0.73457,-0.176094 -2.056722,0.450101 -3.14269,1.488426 -5.221146,5.332755 -5.549015,10.26294 -0.167827,2.523626 0.693235,6.183424 1.955436,8.311637 0.627095,1.057359 2.974358,3.528796 5.108732,5.379517 1.304915,1.131496 1.938747,2.060903 2.404504,3.523816 0.320008,1.005117 0.389876,1.616204 0.573092,5.00848 0.114775,2.125102 0.266037,5.698987 0.335897,7.94215 0.136314,4.377153 0.21224,4.862352 1.010274,6.439917 1.222157,2.415986 4.09167,4.291016 11.447363,7.480676 3.786791,1.64206 10.029539,3.67728 12.736691,4.1522 1.061218,0.18617 3.557048,0.0893 4.510318,-0.17519 1.5071,-0.4182 12.46172,-5.03623 14.66577,-6.18256 4.39013,-2.2833 7.26646,-4.290352 7.70754,-5.377962 0.0888,-0.218835 0.41769,-3.403002 0.73122,-7.076053 0.31353,-3.673052 0.63788,-6.989706 0.72089,-7.370093 0.41423,-1.898311 1.21423,-3.734215 2.0314,-4.662248 0.3184,-0.361592 1.26319,-0.96019 2.90473,-1.841231 2.65065,-1.422657 4.20406,-2.388639 6.0849,-3.782715 2.08188,-1.543098 3.30351,-3.369596 3.9455,-5.898348 0.68337,-2.691765 0.70572,-5.99733 0.0563,-8.333858 -0.35692,-1.284156 -1.71611,-4.159013 -2.65255,-5.609994 -0.84061,-1.302508 -2.88518,-3.354243 -3.92844,-3.942395 -1.10383,-0.6223 -2.94651,-1.152981 -3.18275,-0.91674 -0.14189,0.141891 -0.12262,0.2708 0.0961,0.636654 1.40543,2.350532 1.67235,3.243131 1.67535,5.61051 0.003,2.018358 -0.24483,2.989116 -1.27176,4.985742 -0.77783,1.512294 -1.68092,2.456524 -2.93264,3.065963 -1.26302,0.614978 -2.27998,0.796462 -3.43235,0.612366 -1.90097,-0.303681 -2.99869,-0.874968 -4.17287,-2.172477 -1.88496,-2.082948 -2.01508,-3.782911 -0.53278,-6.972701 1.03872,-2.235251 1.36174,-3.578727 1.34514,-5.600692 -0.0238,-2.893281 -0.62447,-4.882993 -1.91668,-6.351034 -0.74039,-0.841126 -2.46751,-2.188062 -4.42144,-3.447851 -2.27201,-1.464877 -4.5748,-3.240435 -5.50457,-4.244702 -0.93708,-1.012159 -1.6504,-2.371301 -1.65055,-3.145028 -3.2e-4,-1.467603 0.76713,-3.47693 1.77922,-4.657597 0.28061,-0.327339 0.51057,-0.723714 0.51057,-0.880566 0,-0.24318 -0.13186,-0.300764 -0.89452,-0.390674 -0.60364,-0.07116 -1.31694,-0.105509 -2.02107,-0.10697 z m -3.06958,3.462321 c 0.21628,-0.0075 0.20716,0.315987 0.21394,1.066601 0.006,0.696551 0.10387,1.415514 0.24236,1.788005 0.39837,1.071449 1.50757,2.571058 3.08199,4.166154 1.58257,1.60336 2.5574,2.413891 4.95112,4.116544 3.53949,2.517644 4.85768,4.388824 5.43894,7.72201 0.40544,2.324975 0.20024,3.708569 -1.00252,6.762894 -0.85935,2.182219 -1.01444,3.112359 -0.79014,4.735629 0.22539,1.631101 0.89405,2.863318 2.25671,4.157885 0.61328,0.582635 1.37358,1.235787 1.68931,1.451074 1.30962,0.892985 5.05007,1.385904 6.93291,0.91364 2.12254,-0.532393 4.48569,-2.055291 6.08283,-3.919658 1.81626,-2.120148 2.16113,-3.120297 2.02417,-5.864758 -0.0481,-0.964168 -0.0368,-1.752864 0.0248,-1.752864 0.20969,0 0.99948,0.927686 1.46193,1.717207 0.97911,1.671629 1.46988,3.484666 1.64951,6.092652 0.26987,3.918416 -0.78138,6.101539 -4.60075,9.550838 -2.11852,1.913245 -3.71791,3.059513 -5.99964,4.300513 -2.67727,1.456141 -3.71056,2.757498 -4.27571,5.385717 -0.12693,0.590309 -0.55311,3.938918 -0.94723,7.441407 -0.39412,3.502482 -0.75608,6.561397 -0.8046,6.797518 -0.40375,1.965504 -2.99642,3.855779 -8.78292,6.404259 -3.45109,1.51991 -10.94993,4.20175 -12.92428,4.62194 -1.38181,0.29408 -3.87794,0.24971 -5.536095,-0.0982 -2.332504,-0.48936 -7.360336,-2.51334 -11.562085,-4.65449 -2.929271,-1.49272 -6.254751,-3.459606 -6.847127,-4.049883 -1.284217,-1.279672 -1.619557,-2.537841 -1.623157,-6.090067 -0.0028,-2.735992 -0.163544,-5.533949 -0.583427,-10.158036 -0.301711,-3.322715 -0.505135,-4.409489 -1.011308,-5.401738 -0.377112,-0.739248 -1.89041,-2.33663 -3.058728,-3.228743 -4.099255,-3.130133 -5.940322,-5.954637 -5.937622,-9.108488 0.0016,-1.964784 0.653013,-5.142508 1.317233,-6.424414 l 0.307474,-0.593763 0.183452,1.430921 c 0.299731,2.342488 0.852643,3.550172 2.287715,4.995561 1.848988,1.862284 3.15114,2.429991 5.562452,2.425691 1.137454,-0.002 1.599717,-0.06786 2.252575,-0.322461 1.547927,-0.603652 4.26192,-2.787024 4.831747,-3.887101 0.523518,-1.010676 0.747454,-2.260561 0.677994,-3.783748 -0.05868,-1.286925 -0.12299,-1.560983 -0.639754,-2.719214 -0.31605,-0.70837 -0.775741,-1.674396 -1.021643,-2.146639 -0.857133,-1.646169 -1.231521,-3.94198 -0.862996,-5.294767 0.08577,-0.314828 0.525687,-1.348658 0.977718,-2.297535 1.652424,-3.468668 3.682339,-5.846233 3.933093,-4.606954 0.03583,0.177091 0.100777,1.030226 0.144177,1.896009 0.106541,2.125223 0.508338,3.691683 1.431954,5.584672 1.660749,3.403769 4.203878,5.121065 7.236768,4.886523 1.351535,-0.104523 3.289396,-0.662466 4.666898,-1.343587 1.911502,-0.945167 3.519272,-2.688588 4.722192,-5.120618 1.25087,-2.528985 1.178,-3.954819 -0.36794,-7.222815 -0.54099,-1.143632 -1.04808,-2.336689 -1.12706,-2.651517 -0.7616,-3.035736 0.15141,-5.439818 2.69544,-7.096725 0.55449,-0.361135 0.85911,-0.567296 1.02733,-0.573091 z m 3.28662,11.795662 c -0.14533,-9.19e-4 -0.27234,0.02117 -0.37672,0.06873 -0.5435,0.24763 -0.73368,0.688846 -1.13585,2.636014 -0.89229,4.320206 -1.80058,6.426916 -3.50676,8.134388 -2.30381,2.305542 -4.578832,3.406071 -7.642426,3.696415 -2.289493,0.21698 -4.052925,-0.253806 -7.533908,-2.011764 -2.32347,-1.173396 -2.963261,-1.33742 -3.461804,-0.88625 -0.322309,0.29169 -0.336953,1.170554 -0.0956,5.759338 0.184157,3.501363 0.117947,4.230088 -0.516764,5.665287 -0.617136,1.39545 -1.835498,2.39386 -3.584795,2.937805 -0.337489,0.104944 -1.893635,0.215008 -3.792016,0.268718 -3.800327,0.107525 -4.053789,0.176444 -4.122229,1.115694 -0.04106,0.563536 0.01602,0.662913 1.002006,1.757515 2.552835,2.83408 2.97132,3.352297 3.458187,4.278809 0.284076,0.540598 0.609939,1.426711 0.723986,1.968872 0.445849,2.119489 0.889745,6.637686 1.227833,12.503113 0.223504,3.877543 0.590445,5.468799 1.611787,6.983553 0.706326,1.047554 1.880653,1.836607 5.042587,3.389974 4.498015,2.209744 8.803698,3.848894 11.829769,4.503084 2.050257,0.44323 4.195007,0.34533 5.986717,-0.27337 4.36405,-1.50695 10.26414,-4.109851 12.03337,-5.308718 1.83144,-1.241027 2.91475,-2.627595 3.56154,-4.557861 0.30786,-0.918762 0.65809,-3.481832 1.07694,-7.88479 0.62632,-6.583944 1.7121,-9.244304 4.84983,-11.882479 1.26004,-1.059436 1.64639,-1.647815 1.65519,-2.520777 0.005,-0.500448 -0.0711,-0.660617 -0.48524,-1.024226 -0.49518,-0.434777 -0.67456,-0.500266 -3.65869,-1.324467 -2.55007,-0.704325 -5.2754,-2.193078 -6.43836,-3.517615 -0.64779,-0.737793 -1.24725,-2.083647 -1.42524,-3.199805 -0.21582,-1.353375 -0.18632,-2.594399 0.14935,-6.327779 0.3976,-4.422354 0.33216,-7.25061 -0.20568,-8.913151 -0.42967,-1.328199 -0.95496,-2.211962 -2.07739,-3.495394 -1.22401,-1.399589 -3.13229,-2.532433 -4.14962,-2.538863 z M 102.765,59.167636 c 0.87857,0.02819 1.83505,0.371132 3.26853,1.131197 4.22715,2.241313 7.80606,5.303117 8.90644,7.620206 1.15558,2.433339 1.66003,7.398165 1.58698,15.614551 -0.0447,5.031377 -0.0511,5.128446 -0.38551,5.868376 -0.43409,0.960392 -1.03901,1.484448 -2.52853,2.192114 -2.24589,1.067019 -2.66485,2.14227 -2.11821,5.433777 0.21604,1.300474 0.21672,1.446725 0.01,1.67535 -0.36407,0.402286 -4.02247,2.245893 -4.26899,2.151293 -0.12657,-0.0486 -0.482,-0.82335 -0.82889,-1.807128 -0.98579,-2.795666 -1.18747,-2.720835 -1.99161,0.74104 -0.39171,1.686298 -0.64647,2.496478 -0.84853,2.698538 -0.30722,0.30705 -1.37022,0.42383 -2.8267,0.31058 -1.716297,-0.13345 -1.831975,-0.32455 -1.931665,-3.200321 l -0.07183,-2.075325 -0.374137,-0.04341 c -0.353994,-0.04107 -0.424688,0.07075 -1.307931,2.074809 l -0.933276,2.118737 -0.552938,-0.0176 c -0.30388,-0.01 -1.404263,-0.35511 -2.445846,-0.7674 -1.844222,-0.72998 -1.898,-0.76304 -2.038635,-1.270205 -0.109957,-0.396526 -0.07094,-1.011963 0.163298,-2.580204 0.265887,-1.78011 0.285505,-2.203187 0.14366,-3.115572 -0.281129,-1.808284 -1.03986,-2.890621 -2.731099,-3.89537 -1.077663,-0.640226 -1.773545,-1.512578 -2.238107,-2.807064 -0.391484,-1.090855 -0.331848,-3.689921 0.204639,-8.944156 0.663091,-6.494187 1.468955,-9.730978 2.896464,-11.630815 0.841417,-1.119818 3.5794,-3.170958 6.208923,-4.651396 2.041518,-1.149388 5.21563,-2.565804 6.16655,-2.75177 0.29036,-0.05679 0.57427,-0.08226 0.86713,-0.07286 z m -9.724989,10.812259 c -0.242351,0.01166 -0.474213,0.146305 -0.664042,0.412895 -0.427548,0.600434 -2.204034,12.017002 -2.117184,13.605888 0.108627,1.987257 0.220952,2.101413 4.327901,4.419368 2.582762,1.45771 3.114724,1.593514 3.638538,0.927592 0.200346,-0.254694 0.296623,-0.586276 0.296623,-1.021643 0,-0.624399 -4.023595,-16.832287 -4.323767,-17.417024 -0.320308,-0.623959 -0.754152,-0.946507 -1.158069,-0.927076 z m 16.900779,0 c -0.37384,0.0073 -0.77163,0.317247 -1.08469,0.927076 -0.30017,0.584737 -4.32377,16.792625 -4.32377,17.417024 0,0.435367 0.0963,0.766949 0.29662,1.021643 0.5255,0.668054 1.01107,0.538299 3.75636,-1.004073 3.23526,-1.817641 3.49903,-2.00177 3.85042,-2.687174 0.5587,-1.089784 0.50656,-2.058245 -0.45321,-8.381917 -0.4838,-3.18766 -0.97916,-6.069891 -1.1007,-6.405294 -0.21723,-0.599456 -0.56719,-0.894604 -0.94103,-0.887285 z" /></g></svg>
