<?xml version="1.0" encoding="UTF-8" standalone="no"?>
<!-- Created with Inkscape (http://www.inkscape.org/) -->

<svg
   width="84.572235"
   height="26.213772"
   viewBox="0 0 84.572235 26.213772"
   version="1.1"
   id="SVGRoot"
   sodipodi:docname="srr-bleach-logo.svg"
   inkscape:version="1.2.2 (732a01da63, 2022-12-09)"
   xmlns:inkscape="http://www.inkscape.org/namespaces/inkscape"
   xmlns:sodipodi="http://sodipodi.sourceforge.net/DTD/sodipodi-0.dtd"
   xmlns="http://www.w3.org/2000/svg"
   xmlns:svg="http://www.w3.org/2000/svg">
  <sodipodi:namedview
     id="namedview635"
     pagecolor="#ffffff"
     bordercolor="#000000"
     borderopacity="0.25"
     inkscape:showpageshadow="2"
     inkscape:pageopacity="0.0"
     inkscape:pagecheckerboard="0"
     inkscape:deskcolor="#d1d1d1"
     inkscape:document-units="px"
     showgrid="true"
     inkscape:zoom="9.856359"
     inkscape:cx="49.764827"
     inkscape:cy="10.805207"
     inkscape:window-width="1920"
     inkscape:window-height="1001"
     inkscape:window-x="-9"
     inkscape:window-y="-9"
     inkscape:window-maximized="1"
     inkscape:current-layer="layer1">
    <inkscape:grid
       type="xygrid"
       id="grid758"
       originx="39.626189"
       originy="8.5572221" />
  </sodipodi:namedview>
  <defs
     id="defs630">
    <rect
       x="314.88528"
       y="450.99225"
       width="217.03542"
       height="41.935658"
       id="rect240" />
  </defs>
  <g
     inkscape:label="Layer 1"
     inkscape:groupmode="layer"
     id="layer1"
     transform="translate(39.626189,8.5572221)">
    <g
       id="g245"
       transform="matrix(1.048748,0,0,1.048748,-109.71772,-122.62447)">
      <text
         xml:space="preserve"
         style="font-size:9.58265px;font-family:Bahnschrift;-inkscape-font-specification:'Bahnschrift, @wght=600';font-variation-settings:'wght' 600;fill:#000000;stroke-width:0.579001"
         x="83.01165"
         y="117.8653"
         id="text236"><tspan
           sodipodi:role="line"
           id="tspan234"
           style="fill:#000000;stroke-width:0.579"
           x="83.01165"
           y="117.8653">SOULREAPER</tspan></text>
      <text
         xml:space="preserve"
         transform="matrix(0.37047604,0,0,0.37047604,-33.911218,-50.235258)"
         id="text238"
         style="font-size:36.2179px;font-family:Bahnschrift;-inkscape-font-specification:'Bahnschrift, @wght=600';font-variation-settings:'wght' 600;white-space:pre;shape-inside:url(#rect240);display:inline;fill:#000000;stroke-width:2.18835"><tspan
           x="314.88477"
           y="484.27446"
           id="tspan858">REGISTRY</tspan></text>
      <path
         style="fill:#000000;stroke-width:0.194618"
         d="m 67.882784,131.27723 c -0.654232,-0.78831 -0.872519,-1.84707 -0.959921,-4.65591 l -0.08933,-2.87059 h 1.386407 c 1.910359,0 2.164877,-0.26405 2.164877,-2.24587 0,-1.4911 0.270668,-2.31293 1.193119,-3.6227 0.561889,-0.79784 0.456874,-1.35705 -0.414648,-2.20807 -0.428159,-0.41808 -0.778471,-0.85502 -0.778471,-0.97098 0,-0.11595 0.49388,-0.53607 1.09751,-0.93359 l 1.097507,-0.72277 h 2.376407 c 2.319285,0 2.39534,0.0136 3.164025,0.57056 0.922477,0.66823 1.669485,1.59763 2.086716,2.59621 0.163872,0.3922 0.297948,0.75968 0.297948,0.81665 0,0.0569 -1.012903,0.10356 -2.250896,0.10356 -3.826061,0 -3.772327,-0.0836 -3.777921,5.87633 -0.0042,4.50503 0.0057,4.623 0.433563,5.11888 0.554772,0.64309 1.52497,0.86596 3.795042,0.87182 2.071354,0.005 2.090604,0.0285 1.31039,1.56804 l -0.489822,0.96662 h -5.71411 c -4.510043,0 -5.759264,-0.0544 -5.928395,-0.25819 z m 7.689565,-3.60083 c -0.279634,-0.309 -0.32209,-0.93352 -0.32209,-4.73797 0,-3.99811 0.03118,-4.41028 0.355906,-4.70414 0.290138,-0.26259 0.793618,-0.3221 2.724645,-0.3221 h 2.368742 v 5.06006 5.06005 h -2.402557 c -2.080396,0 -2.445746,-0.0477 -2.724646,-0.3559 z m 3.66757,-1.39565 c 0,-0.22498 -0.301284,-0.30512 -1.313668,-0.34948 -1.221401,-0.0535 -1.313669,-0.029 -1.313669,0.34948 0,0.37843 0.09227,0.40298 1.313669,0.34947 1.012384,-0.0443 1.313668,-0.12449 1.313668,-0.34947 z m 0,-2.33542 c 0,-0.22497 -0.301284,-0.30512 -1.313668,-0.34946 -1.221401,-0.0535 -1.313669,-0.029 -1.313669,0.34946 0,0.37843 0.09227,0.40298 1.313669,0.34948 1.012384,-0.0444 1.313668,-0.12449 1.313668,-0.34948 z m 0,-2.3354 c 0,-0.22949 -0.270005,-0.29193 -1.262349,-0.29193 -1.060231,0 -1.273135,0.0561 -1.329721,0.34984 -0.06038,0.31351 0.0707,0.34383 1.262348,0.29193 1.026491,-0.0447 1.329722,-0.12449 1.329722,-0.34984 z m -0.12103,-1.92739 c 0.534001,-0.33824 -0.01565,-0.60265 -1.252779,-0.60265 -0.914861,0 -1.253528,0.0701 -1.253528,0.2595 0,0.14272 0.05838,0.31788 0.129746,0.38923 0.189366,0.18937 2.062163,0.15305 2.376561,-0.0461 z m -12.042567,2.33549 c 0,-2.06538 0.892674,-4.61654 2.117658,-6.05201 l 0.581281,-0.68117 0.816756,0.80678 0.816758,0.80676 -0.489003,0.65286 c -0.939845,1.2548 -1.19436,1.97101 -1.303971,3.66944 l -0.10676,1.65425 -1.216359,0.058 -1.21636,0.058 z m 6.033144,-10.52822 v -0.58384 h 1.848867 1.848867 v 0.58384 0.58385 h -1.848867 -1.848867 z m 0.973088,-2.04348 c 0,-0.67756 0.0046,-0.68116 0.875779,-0.68116 0.871144,0 0.875779,0.004 0.875779,0.68116 0,0.67756 -0.0046,0.68117 -0.875779,0.68117 -0.871144,0 -0.875779,-0.004 -0.875779,-0.68117 z"
         id="path567" />
    </g>
  </g>
</svg>
